<?xml version="1.0" encoding="utf-8"?>
<!-- Generator: Adobe Illustrator 16.0.4, SVG Export Plug-In . SVG Version: 6.00 Build 0)  -->
<!DOCTYPE svg PUBLIC "-//W3C//DTD SVG 1.1//EN" "http://www.w3.org/Graphics/SVG/1.1/DTD/svg11.dtd">
<svg version="1.1" id="freehand-polygon" xmlns="http://www.w3.org/2000/svg" xmlns:xlink="http://www.w3.org/1999/xlink" x="0px"
	 y="0px" width="32px" height="32px" viewBox="0 0 32 32" enable-background="new 0 0 32 32" xml:space="preserve">
<g id="adw-ignore">
</g>
<path d="M21.518,28.076c-0.554,0-1.107-0.06-1.647-0.177c-1.206-0.263-2.108-0.901-2.904-1.465c-0.55-0.389-1.07-0.757-1.496-0.834
	c-0.158-0.028-0.329-0.065-0.505-0.104c-0.236-0.051-0.593-0.128-0.74-0.128c-0.205,0.036-0.67,0.394-1.044,0.681
	c-0.62,0.476-1.322,1.015-2.239,1.312c-2.365,0.768-4.574-0.227-5.636-2.513c-1.467-3.159-0.562-6.57,2.687-10.139
	c0.763-0.838,0.939-1.901,1.164-3.565c0.082-0.608,0.167-1.224,0.292-1.838c0.588-2.881,2.645-4.861,5.792-5.576
	c0.552-0.125,1.115-0.189,1.676-0.189c2.718,0,5.099,1.493,6.214,3.896c0.676,1.455,0.666,2.895,0.656,4.166
	c-0.004,0.498-0.007,0.969,0.032,1.397c0.09,0.987,0.624,1.979,1.503,2.792c0.148,0.137,0.301,0.267,0.452,0.397
	c0.81,0.695,1.919,1.647,2.292,3.337c0.479,2.161-0.073,4.505-1.479,6.268C25.433,27.244,23.584,28.076,21.518,28.076z
	 M14.225,21.369c0.575,0,1.136,0.121,1.586,0.219c0.13,0.028,0.256,0.056,0.373,0.077c1.299,0.236,2.293,0.939,3.092,1.505
	c0.531,0.376,1.034,0.731,1.445,0.821c0.26,0.057,0.527,0.085,0.796,0.085c0.398,0,1.385-0.075,1.941-0.774
	c0.661-0.828,0.923-1.916,0.702-2.91c-0.078-0.354-0.348-0.614-0.991-1.166c-0.189-0.162-0.38-0.326-0.564-0.497
	c-1.605-1.485-2.589-3.391-2.77-5.364c-0.058-0.625-0.053-1.218-0.049-1.79c0.007-0.972,0.014-1.812-0.284-2.452
	c-0.662-1.427-2.029-1.581-2.586-1.581c-0.263,0-0.528,0.03-0.789,0.089c-2.12,0.482-2.59,1.644-2.76,2.475
	c-0.107,0.526-0.177,1.053-0.247,1.574c-0.248,1.836-0.529,3.918-2.169,5.722c-2.786,3.06-2.485,4.754-2.017,5.763
	c0.214,0.462,0.361,0.462,0.416,0.462c0.066,0,0.181-0.013,0.355-0.069c0.264-0.085,0.658-0.388,1.04-0.681
	c0.725-0.557,1.627-1.249,2.832-1.453c0.165-0.025,0.302-0.042,0.441-0.05L14.225,21.369z"/>
</svg>
