<?xml version="1.0" encoding="utf-8"?>
<!-- Generator: Adobe Illustrator 16.0.4, SVG Export Plug-In . SVG Version: 6.00 Build 0)  -->
<!DOCTYPE svg PUBLIC "-//W3C//DTD SVG 1.1//EN" "http://www.w3.org/Graphics/SVG/1.1/DTD/svg11.dtd">
<svg version="1.1" xmlns="http://www.w3.org/2000/svg" xmlns:xlink="http://www.w3.org/1999/xlink" x="0px" y="0px" width="32px"
	 height="32px" viewBox="0 0 32 32" enable-background="new 0 0 32 32" xml:space="preserve">
<g id="Layer_1" display="none">
	<g id="border" display="inline">
		<rect x="4.8" y="4.8" fill="none" stroke="#777474" stroke-width="0.5" stroke-miterlimit="10" width="22.4" height="22.4"/>
	</g>
	<g id="rectang">
		<path display="inline" fill="none" stroke="#000000" stroke-width="4" stroke-miterlimit="10" d="M24.96,24.96H7.04V7.04h17.92
			V24.96z"/>
	</g>
	<g id="fh-polygon">
		<g display="inline">
			<g id="icomoon-ignore_1_">
			</g>
			<path display="none" d="M28.198,16.579c0,1.751-0.341,3.416-1.021,4.998c-0.68,1.581-1.594,2.948-2.744,4.099
				c-1.154,1.153-2.521,2.068-4.102,2.748s-3.247,1.02-4.998,1.02c-1.75,0-3.416-0.34-4.998-1.02s-2.949-1.596-4.1-2.748
				c-1.152-1.152-2.068-2.519-2.747-4.099C2.81,19.997,2.47,18.33,2.47,16.579c0-3.109,0.983-5.843,2.949-8.201
				C7.386,6.02,9.86,4.546,12.844,3.957c0.143-0.572,0.446-1.041,0.911-1.407C14.219,2.184,14.746,2,15.336,2
				s1.117,0.184,1.582,0.55c0.464,0.366,0.77,0.835,0.911,1.407c2.983,0.589,5.456,2.063,7.424,4.421
				c1.964,2.358,2.947,5.092,2.947,8.201H28.198z M17.641,5.672c-0.195,0.447-0.504,0.803-0.925,1.072
				c-0.42,0.268-0.88,0.402-1.38,0.402s-0.96-0.134-1.38-0.402c-0.419-0.269-0.728-0.625-0.924-1.072
				c-2.555,0.537-4.667,1.823-6.338,3.859c-1.67,2.038-2.505,4.387-2.505,7.048c0,2.021,0.496,3.886,1.487,5.601
				c0.992,1.715,2.345,3.067,4.06,4.061c1.716,0.99,3.582,1.486,5.601,1.486c2.019,0,3.888-0.496,5.603-1.486
				c1.715-0.992,3.067-2.346,4.059-4.061c0.99-1.715,1.486-3.582,1.486-5.601c0-2.662-0.838-5.011-2.506-7.048
				c-1.672-2.036-3.783-3.322-6.34-3.859H17.641z M15.335,19.152c-0.714,0-1.322-0.25-1.822-0.752c-0.5-0.5-0.751-1.105-0.751-1.821
				c0-0.714,0.25-1.323,0.751-1.823c0.5-0.5,1.107-0.75,1.822-0.75s1.322,0.25,1.823,0.75c0.5,0.5,0.749,1.109,0.749,1.823
				c0,0.716-0.249,1.321-0.749,1.821C16.657,18.902,16.049,19.152,15.335,19.152z"/>
			<path display="none" d="M9.685,26.458c-0.051-2.629-0.066-5.454,0.172-8.285c0.465-5.611,1.717-8.397,3.825-8.52
				c3.05-0.192,3.649,3.816,3.931,5.732L17.63,15.5c0.253,1.725,0.517,3.509,1.239,4.902c0.378,0.731,0.89,1.193,1.365,1.238
				c0.469,0.053,0.888-0.35,1.152-0.688c0.627-0.798,0.938-2.153,1.118-3.104c0.413-2.18,0.313-4.366,0.208-6.682l-0.049-1.123
				c-0.057-1.382-0.09-3.005,0.081-4.563l1.705,0.187c-0.159,1.446-0.125,2.989-0.073,4.308l0.049,1.112
				c0.105,2.312,0.215,4.705-0.236,7.079c-0.23,1.223-0.604,2.766-1.451,3.845c-0.747,0.952-1.686,1.433-2.662,1.337
				c-1.075-0.101-2.07-0.888-2.729-2.154c-0.855-1.65-1.14-3.58-1.413-5.445l-0.019-0.114c-0.332-2.263-0.815-4.341-2.137-4.27
				c-0.167,0.01-1.662,0.287-2.215,6.948c-0.231,2.756-0.215,5.524-0.165,8.109L9.685,26.458z"/>
			<g>
				<path display="none" fill="#FFFFFF" d="M10.727,15.076c0.313-0.943,0.333-1.976,0.565-2.95c0.311-1.304,0.926-2.568,1.83-3.562
					c1.307-1.437,3.242-2.162,5.146-2.333c1.922-0.172,3.924,0.237,5.45,1.466c1.548,1.246,2.503,3.194,2.707,5.155
					c0.193,1.827-0.36,3.653-1.926,4.721c-1.573,1.071-3.562,1.262-5.319,1.886c-1.83,0.65-3.151,1.823-4.396,3.275
					c-0.992,1.156-2.05,2.49-3.562,2.961c-1.368,0.425-3.093-0.098-4.109-1.081c-0.89-0.861-1.244-2.117-0.997-3.321
					c0.226-1.107,0.787-2.18,1.603-2.967c0.814-0.788,1.863-1.311,2.523-2.258C10.458,15.754,10.612,15.421,10.727,15.076z"/>
				<path d="M10.192,26.7c-1.332,0-2.741-0.562-3.679-1.472c-1.088-1.054-1.552-2.592-1.241-4.108
					c0.267-1.308,0.923-2.521,1.846-3.413c0.347-0.335,0.717-0.615,1.074-0.887c0.519-0.396,1.01-0.77,1.34-1.244
					c0.156-0.222,0.279-0.476,0.377-0.771c0.158-0.474,0.232-0.999,0.312-1.554c0.062-0.432,0.125-0.877,0.233-1.325
					c0.361-1.515,1.063-2.877,2.029-3.94c1.341-1.473,3.366-2.399,5.703-2.61c0.303-0.028,0.606-0.042,0.91-0.042
					c1.995,0,3.777,0.585,5.155,1.693c1.658,1.336,2.789,3.479,3.022,5.735c0.248,2.343-0.59,4.355-2.295,5.519
					c-1.172,0.799-2.496,1.144-3.775,1.479c-0.612,0.16-1.189,0.311-1.74,0.508c-1.447,0.513-2.652,1.418-4.035,3.026l-0.205,0.237
					c-0.987,1.158-2.108,2.472-3.753,2.982C11.074,26.639,10.642,26.7,10.192,26.7z M19.1,7.05c-0.252,0-0.504,0.012-0.754,0.034
					c-1.91,0.171-3.539,0.901-4.589,2.056c-0.772,0.848-1.335,1.949-1.63,3.184c-0.088,0.37-0.144,0.759-0.203,1.169
					c-0.087,0.606-0.177,1.232-0.381,1.852c-0.152,0.458-0.348,0.854-0.6,1.214c-0.485,0.696-1.108,1.17-1.709,1.627
					c-0.332,0.252-0.647,0.491-0.92,0.754c-0.667,0.646-1.162,1.565-1.358,2.522c-0.193,0.943,0.089,1.892,0.754,2.533
					c0.813,0.788,2.265,1.19,3.257,0.878c1.172-0.363,2.08-1.428,2.958-2.456l0.208-0.243c1.123-1.306,2.565-2.744,4.762-3.525
					c0.619-0.219,1.263-0.388,1.879-0.549c1.193-0.312,2.317-0.604,3.242-1.236c1.17-0.797,1.734-2.228,1.558-3.923
					c-0.189-1.812-1.085-3.521-2.394-4.576C21.829,7.278,20.216,7.05,19.1,7.05z"/>
			</g>
		</g>
	</g>
	<g id="polyline_1_">
		<g display="inline">
			<g>
				<path d="M5.507,27.907c7.467-7.468,14.933-14.933,22.4-22.4c0.913-0.913-0.501-2.327-1.414-1.414
					c-7.468,7.466-14.934,14.933-22.4,22.4C3.181,27.406,4.595,28.82,5.507,27.907L5.507,27.907z"/>
			</g>
		</g>
	</g>
	<g id="text">
		<g id="icomoon-ignore" display="inline">
		</g>
		<path display="inline" d="M18.16,8.553V27.2h-4.32V8.553h-7.2V4.25h18.719v4.303H18.16z"/>
	</g>
</g>
<g id="circle" display="none">
	<path display="inline" fill="none" stroke="#000000" stroke-width="3" stroke-miterlimit="10" d="M26,16
		c0,5.523-4.478,10.001-10,10.001s-10-4.478-10-10.001c0-5.522,4.478-10,10-10S26,10.478,26,16z"/>
</g>
<g id="text_1_" display="none">
	<g id="text_2_" display="inline">
		<g id="icomoon-ignore_2_">
		</g>
		<path d="M18.16,9V27.2h-4.32V9h-7.2V4.8h18.719V9H18.16z"/>
	</g>
</g>
<g id="polyline">
	<g>
		<g>
			<path d="M7.789,27.039c6.5-6.5,13-13,19.5-19.5c1.825-1.825-1.003-4.654-2.828-2.828c-6.5,6.5-13,13-19.5,19.5
				C3.135,26.036,5.963,28.864,7.789,27.039L7.789,27.039z"/>
		</g>
	</g>
</g>
<g id="polygon" display="none">
	<path display="inline" fill="none" stroke="#000000" stroke-width="3" stroke-miterlimit="10" d="M5.139,17.519L15.557,7.101
		l10.414,10.417l-3.928,3.931l-4.318-4.319l-6.488,6.488L5.139,17.519z"/>
</g>
<g id="freehand-polyline" display="none">
	<path display="inline" fill="none" stroke="#000000" stroke-width="4" stroke-miterlimit="10" d="M5.002,26.918
		C4.837,21.057,5.58,14.441,8.621,9.304c1.228-2.076,3.975-3.341,5.577-0.957c1.708,2.543,2.114,6.183,2.901,9.088
		c0.48,1.775,1.212,4.078,2.637,5.318c2.078,1.81,4.259-0.207,5.186-2.188c0.724-1.545,0.951-3.261,1.162-4.935
		c0.454-3.592,0.577-7.214,0.577-10.831"/>
</g>
</svg>
